<?xml version="1.0" encoding="UTF-8"?>
<!DOCTYPE svg PUBLIC "-//W3C//DTD SVG 1.1//EN" "http://www.w3.org/Graphics/SVG/1.1/DTD/svg11.dtd">
<svg xmlns="http://www.w3.org/2000/svg" version="1.1" width="1080px" height="1080px" style="shape-rendering:geometricPrecision; text-rendering:geometricPrecision; image-rendering:optimizeQuality; fill-rule:evenodd; clip-rule:evenodd" xmlns:xlink="http://www.w3.org/1999/xlink">
<g><path style="opacity:0.999" fill="#3e9396" d="M 78.5,6.5 C 232.465,160.965 386.632,315.299 541,469.5C 541.464,470.094 541.631,470.761 541.5,471.5C 535.833,477.833 529.833,483.833 523.5,489.5C 523.631,488.761 523.464,488.094 523,487.5C 362.965,327.632 203.132,167.632 43.5,7.5C 55.3106,3.33469 66.9773,3.00136 78.5,6.5 Z"/></g>
<g><path style="opacity:0.999" fill="#47cba9" d="M 533.5,4.5 C 626.5,97.8333 719.5,191.167 812.5,284.5C 797.117,280.569 781.451,278.902 765.5,279.5C 674.833,188.5 584.167,97.5 493.5,6.5C 506.64,5.05351 519.974,4.38684 533.5,4.5 Z"/></g>
<g><path style="opacity:0.999" fill="#48d1ab" d="M 533.5,4.5 C 549.513,4.36525 565.513,4.69858 581.5,5.5C 745.167,169.833 909.167,333.833 1073.5,497.5C 1074.6,513.813 1075.27,530.146 1075.5,546.5C 1010.03,481.535 944.701,416.368 879.5,351C 878.906,350.536 878.239,350.369 877.5,350.5C 865.2,319.201 843.534,297.201 812.5,284.5C 719.5,191.167 626.5,97.8333 533.5,4.5 Z"/></g>
<g><path style="opacity:0.998" fill="#48d7ad" d="M 581.5,5.5 C 600.455,7.03382 619.122,9.70049 637.5,13.5C 780.167,156.833 923.167,299.833 1066.5,442.5C 1069.9,460.693 1072.23,479.026 1073.5,497.5C 909.167,333.833 745.167,169.833 581.5,5.5 Z"/></g>
<g><path style="opacity:0.999" fill="#3e9697" d="M 78.5,6.5 C 81.7846,6.92809 84.7846,7.92809 87.5,9.5C 239.465,161.965 391.632,314.299 544,466.5C 544.464,467.094 544.631,467.761 544.5,468.5C 543.833,469.833 542.833,470.833 541.5,471.5C 541.631,470.761 541.464,470.094 541,469.5C 386.632,315.299 232.465,160.965 78.5,6.5 Z"/></g>
<g><path style="opacity:0.999" fill="#46c8a8" d="M 493.5,6.5 C 584.167,97.5 674.833,188.5 765.5,279.5C 762.344,280.434 759.011,281.101 755.5,281.5C 664.5,190.167 573.5,98.8333 482.5,7.5C 485.962,6.51836 489.629,6.18503 493.5,6.5 Z"/></g>
<g><path style="opacity:0.999" fill="#3e9095" d="M 43.5,7.5 C 203.132,167.632 362.965,327.632 523,487.5C 523.464,488.094 523.631,488.761 523.5,489.5C 521.833,491.833 519.833,493.833 517.5,495.5C 517.631,494.761 517.464,494.094 517,493.5C 356.299,332.965 195.799,172.299 35.5,11.5C 37.8485,9.659 40.5152,8.32567 43.5,7.5 Z"/></g>
<g><path style="opacity:0.999" fill="#46c4a6" d="M 482.5,7.5 C 573.5,98.8333 664.5,190.167 755.5,281.5C 743.955,284.439 732.955,288.772 722.5,294.5C 628.5,201.167 534.833,107.5 441.5,13.5C 454.99,10.5302 468.657,8.53016 482.5,7.5 Z"/></g>
<g><path style="opacity:0.996" fill="#3f9998" d="M 87.5,9.5 C 92.7568,11.4617 97.7568,13.9617 102.5,17C 144.61,44.4454 185.61,73.4454 225.5,104C 227.989,103.763 230.322,102.929 232.5,101.5C 345.5,214.833 458.5,328.167 571.5,441.5C 562.833,450.833 553.833,459.833 544.5,468.5C 544.631,467.761 544.464,467.094 544,466.5C 391.632,314.299 239.465,161.965 87.5,9.5 Z"/></g>
<g><path style="opacity:0.999" fill="#3d8c93" d="M 35.5,11.5 C 195.799,172.299 356.299,332.965 517,493.5C 517.464,494.094 517.631,494.761 517.5,495.5C 510.167,503.5 502.5,511.167 494.5,518.5C 333.833,357.167 172.833,196.167 11.5,35.5C 16.5,24.5 24.5,16.5 35.5,11.5 Z"/></g>
<g><path style="opacity:0.999" fill="#45bea5" d="M 441.5,13.5 C 534.833,107.5 628.5,201.167 722.5,294.5C 713.502,301.348 704.836,308.682 696.5,316.5C 598.167,218.5 499.833,120.5 401.5,22.5C 414.443,18.2669 427.776,15.2669 441.5,13.5 Z"/></g>
<g><path style="opacity:0.997" fill="#49ddaf" d="M 637.5,13.5 C 658.569,16.934 679.235,21.934 699.5,28.5C 816.167,145.833 933.167,262.833 1050.5,379.5C 1057.22,400.034 1062.55,421.034 1066.5,442.5C 923.167,299.833 780.167,156.833 637.5,13.5 Z"/></g>
<g><path style="opacity:0.999" fill="#44b9a3" d="M 401.5,22.5 C 499.833,120.5 598.167,218.5 696.5,316.5C 691.167,322.5 685.5,328.167 679.5,333.5C 678.761,333.631 678.094,333.464 677.5,333C 576.632,231.965 475.632,131.132 374.5,30.5C 383.088,26.7656 392.088,24.0989 401.5,22.5 Z"/></g>
<g><path style="opacity:0.996" fill="#4ae1b0" d="M 699.5,28.5 C 705.579,30.304 711.579,32.304 717.5,34.5C 826.167,143.833 935.167,252.833 1044.5,361.5C 1047.07,367.216 1049.07,373.216 1050.5,379.5C 933.167,262.833 816.167,145.833 699.5,28.5 Z"/></g>
<g><path style="opacity:0.999" fill="#44b6a2" d="M 374.5,30.5 C 475.632,131.132 576.632,231.965 677.5,333C 678.094,333.464 678.761,333.631 679.5,333.5C 676.5,337.167 673.167,340.5 669.5,343.5C 566.833,240.5 464.167,137.5 361.5,34.5C 365.697,32.7679 370.031,31.4345 374.5,30.5 Z"/></g>
<g><path style="opacity:0.999" fill="#42b1a0" d="M 361.5,34.5 C 464.167,137.5 566.833,240.5 669.5,343.5C 661.167,352.5 652.5,361.167 643.5,369.5C 536.5,263.167 429.833,156.5 323.5,49.5C 335.938,43.9486 348.605,38.9486 361.5,34.5 Z"/></g>
<g><path style="opacity:0.993" fill="#4be4b1" d="M 717.5,34.5 C 748.613,45.2263 778.28,58.893 806.5,75.5C 871.833,141.5 937.5,207.167 1003.5,272.5C 1020.66,300.491 1034.33,330.158 1044.5,361.5C 935.167,252.833 826.167,143.833 717.5,34.5 Z"/></g>
<g><path style="opacity:0.999" fill="#3c8692" d="M 11.5,35.5 C 172.833,196.167 333.833,357.167 494.5,518.5C 486.833,526.833 478.833,534.833 470.5,542.5C 315.5,386.833 160.167,231.5 4.5,76.5C 2.9479,64.5799 4.11456,52.9133 8,41.5C 8.94102,39.2726 10.1077,37.2726 11.5,35.5 Z"/></g>
<g><path style="opacity:0.999" fill="#42ab9e" d="M 323.5,49.5 C 429.833,156.5 536.5,263.167 643.5,369.5C 635.5,378.167 627.167,386.5 618.5,394.5C 509.882,284.215 400.549,174.548 290.5,65.5C 301.068,59.3832 312.068,54.0499 323.5,49.5 Z"/></g>
<g><path style="opacity:0.999" fill="#41a79d" d="M 290.5,65.5 C 400.549,174.548 509.882,284.215 618.5,394.5C 614.833,398.833 610.833,402.833 606.5,406.5C 606.631,405.761 606.464,405.094 606,404.5C 495.632,294.299 385.465,183.965 275.5,73.5C 280.341,70.5788 285.341,67.9121 290.5,65.5 Z"/></g>
<g><path style="opacity:0.999" fill="#41a49c" d="M 275.5,73.5 C 385.465,183.965 495.632,294.299 606,404.5C 606.464,405.094 606.631,405.761 606.5,406.5C 603.167,410.5 599.5,414.167 595.5,417.5C 484.167,305.5 372.5,193.833 260.5,82.5C 265.299,79.263 270.299,76.263 275.5,73.5 Z"/></g>
<g><path style="opacity:0.961" fill="#4ce9b3" d="M 806.5,75.5 C 889.833,123.5 955.5,189.167 1003.5,272.5C 937.5,207.167 871.833,141.5 806.5,75.5 Z"/></g>
<g><path style="opacity:1" fill="#3b8190" d="M 4.5,76.5 C 160.167,231.5 315.5,386.833 470.5,542.5C 469.594,544.914 467.928,545.747 465.5,545C 430.777,509.609 395.443,474.942 359.5,441C 346.46,433.042 332.46,427.542 317.5,424.5C 213.5,319.833 109.167,215.5 4.5,111.5C 4.5,99.8333 4.5,88.1667 4.5,76.5 Z"/></g>
<g><path style="opacity:0.999" fill="#409f9a" d="M 260.5,82.5 C 372.5,193.833 484.167,305.5 595.5,417.5C 587.833,425.833 579.833,433.833 571.5,441.5C 458.5,328.167 345.5,214.833 232.5,101.5C 241.263,94.4173 250.596,88.0839 260.5,82.5 Z"/></g>
<g><path style="opacity:1" fill="#3a7d8f" d="M 4.5,111.5 C 109.167,215.5 213.5,319.833 317.5,424.5C 309.184,423.815 300.851,423.482 292.5,423.5C 196.833,327.167 100.833,231.167 4.5,135.5C 4.5,127.5 4.5,119.5 4.5,111.5 Z"/></g>
<g><path style="opacity:1" fill="#3a798d" d="M 4.5,135.5 C 100.833,231.167 196.833,327.167 292.5,423.5C 279.685,425.12 267.352,428.453 255.5,433.5C 172.167,349.5 88.5,265.833 4.5,182.5C 4.5,166.833 4.5,151.167 4.5,135.5 Z"/></g>
<g><path style="opacity:1" fill="#39738b" d="M 4.5,182.5 C 88.5,265.833 172.167,349.5 255.5,433.5C 245.331,439.003 235.998,445.669 227.5,453.5C 153.5,378.833 79.1667,304.5 4.5,230.5C 4.5,214.5 4.5,198.5 4.5,182.5 Z"/></g>
<g><path style="opacity:1" fill="#386e8a" d="M 4.5,230.5 C 79.1667,304.5 153.5,378.833 227.5,453.5C 223.805,457.526 220.138,461.526 216.5,465.5C 145.833,395.167 75.1667,324.833 4.5,254.5C 4.5,246.5 4.5,238.5 4.5,230.5 Z"/></g>
<g><path style="opacity:1" fill="#386c89" d="M 4.5,254.5 C 75.1667,324.833 145.833,395.167 216.5,465.5C 213.497,470.175 210.497,474.841 207.5,479.5C 139.833,412.167 72.1667,344.833 4.5,277.5C 4.5,269.833 4.5,262.167 4.5,254.5 Z"/></g>
<g><path style="opacity:1" fill="#376787" d="M 4.5,277.5 C 72.1667,344.833 139.833,412.167 207.5,479.5C 201.426,493.197 197.76,507.53 196.5,522.5C 132.5,458.833 68.5,395.167 4.5,331.5C 4.5,313.5 4.5,295.5 4.5,277.5 Z"/></g>
<g><path style="opacity:1" fill="#fefefe" d="M 765.5,279.5 C 781.451,278.902 797.117,280.569 812.5,284.5C 843.534,297.201 865.2,319.201 877.5,350.5C 881.85,365.153 883.517,380.153 882.5,395.5C 881.313,398.946 880.646,402.613 880.5,406.5C 877.725,417.831 873.392,428.498 867.5,438.5C 859.95,449.059 851.617,459.059 842.5,468.5C 836.871,472.461 831.871,477.127 827.5,482.5C 824.167,485.167 821.167,488.167 818.5,491.5C 809.167,500.167 800.167,509.167 791.5,518.5C 783.113,526.221 775.113,534.221 767.5,542.5C 763.167,546.167 759.167,550.167 755.5,554.5C 751.167,558.167 747.167,562.167 743.5,566.5C 735.167,574.167 727.167,582.167 719.5,590.5C 710.5,598.833 701.833,607.5 693.5,616.5C 686.167,623.167 679.167,630.167 672.5,637.5C 670.167,639.167 668.167,641.167 666.5,643.5C 658.167,651.167 650.167,659.167 642.5,667.5C 634.167,675.167 626.167,683.167 618.5,691.5C 612.5,696.833 606.833,702.5 601.5,708.5C 597.167,712.167 593.167,716.167 589.5,720.5C 581.167,728.167 573.167,736.167 565.5,744.5C 557.113,752.221 549.113,760.221 541.5,768.5C 537.474,772.195 533.474,775.862 529.5,779.5C 524.63,782.766 519.63,785.766 514.5,788.5C 501.435,794.315 487.768,797.981 473.5,799.5C 450.596,800.526 429.596,794.859 410.5,782.5C 406.354,779.922 402.354,777.089 398.5,774C 339.667,715.167 280.833,656.333 222,597.5C 218.812,593.099 215.645,588.766 212.5,584.5C 200.85,565.535 195.517,544.869 196.5,522.5C 197.76,507.53 201.426,493.197 207.5,479.5C 210.497,474.841 213.497,470.175 216.5,465.5C 220.138,461.526 223.805,457.526 227.5,453.5C 235.998,445.669 245.331,439.003 255.5,433.5C 267.352,428.453 279.685,425.12 292.5,423.5C 300.851,423.482 309.184,423.815 317.5,424.5C 332.46,427.542 346.46,433.042 359.5,441C 395.443,474.942 430.777,509.609 465.5,545C 467.928,545.747 469.594,544.914 470.5,542.5C 478.833,534.833 486.833,526.833 494.5,518.5C 502.5,511.167 510.167,503.5 517.5,495.5C 519.833,493.833 521.833,491.833 523.5,489.5C 529.833,483.833 535.833,477.833 541.5,471.5C 542.833,470.833 543.833,469.833 544.5,468.5C 553.833,459.833 562.833,450.833 571.5,441.5C 579.833,433.833 587.833,425.833 595.5,417.5C 599.5,414.167 603.167,410.5 606.5,406.5C 610.833,402.833 614.833,398.833 618.5,394.5C 627.167,386.5 635.5,378.167 643.5,369.5C 652.5,361.167 661.167,352.5 669.5,343.5C 673.167,340.5 676.5,337.167 679.5,333.5C 685.5,328.167 691.167,322.5 696.5,316.5C 704.836,308.682 713.502,301.348 722.5,294.5C 732.955,288.772 743.955,284.439 755.5,281.5C 759.011,281.101 762.344,280.434 765.5,279.5 Z"/></g>
<g><path style="opacity:1" fill="#366085" d="M 4.5,331.5 C 68.5,395.167 132.5,458.833 196.5,522.5C 195.517,544.869 200.85,565.535 212.5,584.5C 211.761,584.631 211.094,584.464 210.5,584C 141.965,515.299 73.2988,446.799 4.5,378.5C 4.5,362.833 4.5,347.167 4.5,331.5 Z"/></g>
<g><path style="opacity:0.998" fill="#47cba9" d="M 877.5,350.5 C 878.239,350.369 878.906,350.536 879.5,351C 944.701,416.368 1010.03,481.535 1075.5,546.5C 1074.78,559.657 1073.78,572.657 1072.5,585.5C 1008.83,522.5 945.5,459.167 882.5,395.5C 883.517,380.153 881.85,365.153 877.5,350.5 Z"/></g>
<g><path style="opacity:0.999" fill="#355c84" d="M 4.5,378.5 C 73.2988,446.799 141.965,515.299 210.5,584C 211.094,584.464 211.761,584.631 212.5,584.5C 215.645,588.766 218.812,593.099 222,597.5C 280.833,656.333 339.667,715.167 398.5,774C 402.354,777.089 406.354,779.922 410.5,782.5C 500.451,874.118 591.118,965.118 682.5,1055.5C 677.728,1057.28 672.728,1058.61 667.5,1059.5C 446.833,838.167 225.833,617.167 4.5,396.5C 4.5,390.5 4.5,384.5 4.5,378.5 Z"/></g>
<g><path style="opacity:0.999" fill="#355982" d="M 4.5,396.5 C 225.833,617.167 446.833,838.167 667.5,1059.5C 657.964,1062.01 648.297,1064.01 638.5,1065.5C 427.167,854.5 215.833,643.5 4.5,432.5C 4.5,420.5 4.5,408.5 4.5,396.5 Z"/></g>
<g><path style="opacity:0.999" fill="#46c8a8" d="M 882.5,395.5 C 945.5,459.167 1008.83,522.5 1072.5,585.5C 1072.5,589.167 1072.5,592.833 1072.5,596.5C 1071.76,596.631 1071.09,596.464 1070.5,596C 1007.3,532.632 943.965,469.465 880.5,406.5C 880.646,402.613 881.313,398.946 882.5,395.5 Z"/></g>
<g><path style="opacity:0.998" fill="#46c4a7" d="M 880.5,406.5 C 943.965,469.465 1007.3,532.632 1070.5,596C 1071.09,596.464 1071.76,596.631 1072.5,596.5C 1071,610.309 1068.67,623.976 1065.5,637.5C 998.784,571.785 932.784,505.451 867.5,438.5C 873.392,428.498 877.725,417.831 880.5,406.5 Z"/></g>
<g><path style="opacity:0.999" fill="#345480" d="M 4.5,432.5 C 215.833,643.5 427.167,854.5 638.5,1065.5C 624.767,1068.44 610.767,1070.44 596.5,1071.5C 399.5,873.833 202.167,676.5 4.5,479.5C 4.5,463.833 4.5,448.167 4.5,432.5 Z"/></g>
<g><path style="opacity:0.998" fill="#44bea4" d="M 867.5,438.5 C 932.784,505.451 998.784,571.785 1065.5,637.5C 1063.81,652.653 1060.47,667.319 1055.5,681.5C 984.833,610.167 913.833,539.167 842.5,468.5C 851.617,459.059 859.95,449.059 867.5,438.5 Z"/></g>
<g><path style="opacity:0.998" fill="#44b9a3" d="M 842.5,468.5 C 913.833,539.167 984.833,610.167 1055.5,681.5C 1053.97,689.289 1051.97,696.955 1049.5,704.5C 975.167,630.833 901.167,556.833 827.5,482.5C 831.871,477.127 836.871,472.461 842.5,468.5 Z"/></g>
<g><path style="opacity:0.999" fill="#334d7e" d="M 4.5,479.5 C 202.167,676.5 399.5,873.833 596.5,1071.5C 579.974,1073.93 563.307,1074.93 546.5,1074.5C 366.167,893.5 185.5,712.833 4.5,532.5C 4.5,514.833 4.5,497.167 4.5,479.5 Z"/></g>
<g><path style="opacity:0.998" fill="#44b6a2" d="M 827.5,482.5 C 901.167,556.833 975.167,630.833 1049.5,704.5C 1048.01,708.982 1046.34,713.316 1044.5,717.5C 968.833,642.5 893.5,567.167 818.5,491.5C 821.167,488.167 824.167,485.167 827.5,482.5 Z"/></g>
<g><path style="opacity:0.998" fill="#43b1a0" d="M 818.5,491.5 C 893.5,567.167 968.833,642.5 1044.5,717.5C 1040.27,730.547 1035.27,743.214 1029.5,755.5C 950.167,676.5 870.833,597.5 791.5,518.5C 800.167,509.167 809.167,500.167 818.5,491.5 Z"/></g>
<g><path style="opacity:0.998" fill="#42ab9e" d="M 791.5,518.5 C 870.833,597.5 950.167,676.5 1029.5,755.5C 1024.95,766.936 1019.61,777.936 1013.5,788.5C 931.833,706.167 849.833,624.167 767.5,542.5C 775.113,534.221 783.113,526.221 791.5,518.5 Z"/></g>
<g><path style="opacity:1" fill="#32487d" d="M 4.5,532.5 C 185.5,712.833 366.167,893.5 546.5,1074.5C 536.5,1074.5 526.5,1074.5 516.5,1074.5C 346.167,903.5 175.5,732.833 4.5,562.5C 4.5,552.5 4.5,542.5 4.5,532.5 Z"/></g>
<g><path style="opacity:0.999" fill="#41a79d" d="M 767.5,542.5 C 849.833,624.167 931.833,706.167 1013.5,788.5C 1011.59,793.984 1008.93,798.984 1005.5,803.5C 922.167,720.5 838.833,637.5 755.5,554.5C 759.167,550.167 763.167,546.167 767.5,542.5 Z"/></g>
<g><path style="opacity:0.998" fill="#41a49c" d="M 755.5,554.5 C 838.833,637.5 922.167,720.5 1005.5,803.5C 1002.89,808.767 999.89,813.767 996.5,818.5C 912.785,733.785 828.451,649.785 743.5,566.5C 747.167,562.167 751.167,558.167 755.5,554.5 Z"/></g>
<g><path style="opacity:0.998" fill="#32457c" d="M 4.5,562.5 C 175.5,732.833 346.167,903.5 516.5,1074.5C 510.185,1073.89 503.851,1073.56 497.5,1073.5C 333.833,909.167 169.833,745.167 5.5,581.5C 5.34734,575.155 5.01401,568.822 4.5,562.5 Z"/></g>
<g><path style="opacity:0.999" fill="#409f9a" d="M 743.5,566.5 C 828.451,649.785 912.785,733.785 996.5,818.5C 990.91,828.688 984.576,838.355 977.5,847.5C 892.118,761.118 806.118,675.451 719.5,590.5C 727.167,582.167 735.167,574.167 743.5,566.5 Z"/></g>
<g><path style="opacity:0.998" fill="#32447c" d="M 5.5,581.5 C 169.833,745.167 333.833,909.167 497.5,1073.5C 495.236,1072.78 492.903,1072.45 490.5,1072.5C 329.5,910.833 168.167,749.5 6.5,588.5C 6.55195,586.097 6.21862,583.764 5.5,581.5 Z"/></g>
<g><path style="opacity:0.998" fill="#31417a" d="M 6.5,588.5 C 168.167,749.5 329.5,910.833 490.5,1072.5C 474.415,1071.15 458.415,1069.15 442.5,1066.5C 300.416,922.916 157.75,779.75 14.5,637C 13.9056,636.536 13.2389,636.369 12.5,636.5C 9.84543,620.584 7.84543,604.584 6.5,588.5 Z"/></g>
<g><path style="opacity:0.999" fill="#3f9998" d="M 719.5,590.5 C 806.118,675.451 892.118,761.118 977.5,847.5C 970.569,858.094 962.902,868.094 954.5,877.5C 867.833,790.167 780.833,703.167 693.5,616.5C 701.833,607.5 710.5,598.833 719.5,590.5 Z"/></g>
<g><path style="opacity:0.999" fill="#3e9396" d="M 693.5,616.5 C 780.833,703.167 867.833,790.167 954.5,877.5C 948.908,885.429 942.574,892.762 935.5,899.5C 847.833,812.167 760.167,724.833 672.5,637.5C 679.167,630.167 686.167,623.167 693.5,616.5 Z"/></g>
<g><path style="opacity:0.997" fill="#303b78" d="M 12.5,636.5 C 13.2389,636.369 13.9056,636.536 14.5,637C 157.75,779.75 300.416,922.916 442.5,1066.5C 420.614,1062.36 399.28,1056.7 378.5,1049.5C 262.167,932.5 145.5,815.833 28.5,699.5C 22.0695,678.778 16.7362,657.778 12.5,636.5 Z"/></g>
<g><path style="opacity:0.998" fill="#3e9095" d="M 672.5,637.5 C 760.167,724.833 847.833,812.167 935.5,899.5C 934.243,902.427 932.243,904.761 929.5,906.5C 842.167,818.5 754.5,730.833 666.5,643.5C 668.167,641.167 670.167,639.167 672.5,637.5 Z"/></g>
<g><path style="opacity:0.999" fill="#3d8c94" d="M 666.5,643.5 C 754.5,730.833 842.167,818.5 929.5,906.5C 922.167,914.5 914.5,922.167 906.5,929.5C 819.035,842.535 731.701,755.368 644.5,668C 643.906,667.536 643.239,667.369 642.5,667.5C 650.167,659.167 658.167,651.167 666.5,643.5 Z"/></g>
<g><path style="opacity:0.998" fill="#3c8692" d="M 642.5,667.5 C 643.239,667.369 643.906,667.536 644.5,668C 731.701,755.368 819.035,842.535 906.5,929.5C 898.453,937.881 889.786,945.548 880.5,952.5C 793.785,864.785 706.451,777.785 618.5,691.5C 626.167,683.167 634.167,675.167 642.5,667.5 Z"/></g>
<g><path style="opacity:0.998" fill="#3b8190" d="M 618.5,691.5 C 706.451,777.785 793.785,864.785 880.5,952.5C 874.478,957.85 868.145,962.85 861.5,967.5C 774.833,881.167 688.167,794.833 601.5,708.5C 606.833,702.5 612.5,696.833 618.5,691.5 Z"/></g>
<g><path style="opacity:0.995" fill="#2f3677" d="M 28.5,699.5 C 145.5,815.833 262.167,932.5 378.5,1049.5C 362.798,1045.16 347.465,1039.82 332.5,1033.5C 237.549,936.882 141.882,840.882 45.5,745.5C 38.6756,730.704 33.009,715.371 28.5,699.5 Z"/></g>
<g><path style="opacity:0.998" fill="#3a7d8f" d="M 601.5,708.5 C 688.167,794.833 774.833,881.167 861.5,967.5C 857.135,971.189 852.469,974.522 847.5,977.5C 761.5,891.833 675.5,806.167 589.5,720.5C 593.167,716.167 597.167,712.167 601.5,708.5 Z"/></g>
<g><path style="opacity:0.998" fill="#3a798d" d="M 589.5,720.5 C 675.5,806.167 761.5,891.833 847.5,977.5C 838.355,984.576 828.688,990.91 818.5,996.5C 734.785,911.785 650.451,827.785 565.5,744.5C 573.167,736.167 581.167,728.167 589.5,720.5 Z"/></g>
<g><path style="opacity:0.998" fill="#39738b" d="M 565.5,744.5 C 650.451,827.785 734.785,911.785 818.5,996.5C 808.833,1002.67 798.833,1008.34 788.5,1013.5C 706.701,932.201 625.035,850.701 543.5,769C 542.906,768.536 542.239,768.369 541.5,768.5C 549.113,760.221 557.113,752.221 565.5,744.5 Z"/></g>
<g><path style="opacity:0.991" fill="#2f3375" d="M 45.5,745.5 C 141.882,840.882 237.549,936.882 332.5,1033.5C 312.296,1025.4 292.963,1015.73 274.5,1004.5C 208.167,937.5 141.5,870.833 74.5,804.5C 62.9914,785.815 53.3247,766.148 45.5,745.5 Z"/></g>
<g><path style="opacity:0.999" fill="#386e8a" d="M 541.5,768.5 C 542.239,768.369 542.906,768.536 543.5,769C 625.035,850.701 706.701,932.201 788.5,1013.5C 783.484,1016.67 778.151,1019.34 772.5,1021.5C 691.5,940.833 610.5,860.167 529.5,779.5C 533.474,775.862 537.474,772.195 541.5,768.5 Z"/></g>
<g><path style="opacity:0.998" fill="#386c89" d="M 529.5,779.5 C 610.5,860.167 691.5,940.833 772.5,1021.5C 767.082,1024.54 761.416,1027.2 755.5,1029.5C 676.417,948.916 596.75,868.75 516.5,789C 515.906,788.536 515.239,788.369 514.5,788.5C 519.63,785.766 524.63,782.766 529.5,779.5 Z"/></g>
<g><path style="opacity:0.998" fill="#366085" d="M 410.5,782.5 C 429.596,794.859 450.596,800.526 473.5,799.5C 554.833,881.167 636.167,962.833 717.5,1044.5C 706.167,1048.92 694.5,1052.59 682.5,1055.5C 591.118,965.118 500.451,874.118 410.5,782.5 Z"/></g>
<g><path style="opacity:0.999" fill="#376787" d="M 514.5,788.5 C 515.239,788.369 515.906,788.536 516.5,789C 596.75,868.75 676.417,948.916 755.5,1029.5C 743.349,1035.57 730.682,1040.57 717.5,1044.5C 636.167,962.833 554.833,881.167 473.5,799.5C 487.768,797.981 501.435,794.315 514.5,788.5 Z"/></g>
<g><path style="opacity:0.96" fill="#2e2f74" d="M 74.5,804.5 C 141.5,870.833 208.167,937.5 274.5,1004.5C 189.5,956.167 122.833,889.5 74.5,804.5 Z"/></g>
</svg>
